<svg width="139" height="21" viewBox="0 0 139 21" fill="none" xmlns="http://www.w3.org/2000/svg">
<path d="M7.22443 13.1364H10.0881L11.7841 15.3352L12.9943 16.767L15.9006 20.5H12.8324L10.8551 17.9943L10.0114 16.8011L7.22443 13.1364ZM16.3182 10.2727C16.3182 12.1534 15.9659 13.7642 15.2614 15.1051C14.5625 16.4403 13.608 17.4631 12.3977 18.1733C11.1932 18.8835 9.8267 19.2386 8.2983 19.2386C6.76989 19.2386 5.40057 18.8835 4.19034 18.1733C2.9858 17.4574 2.03125 16.4318 1.3267 15.0966C0.627841 13.7557 0.278409 12.1477 0.278409 10.2727C0.278409 8.39205 0.627841 6.78409 1.3267 5.44886C2.03125 4.10795 2.9858 3.08239 4.19034 2.37216C5.40057 1.66193 6.76989 1.30682 8.2983 1.30682C9.8267 1.30682 11.1932 1.66193 12.3977 2.37216C13.608 3.08239 14.5625 4.10795 15.2614 5.44886C15.9659 6.78409 16.3182 8.39205 16.3182 10.2727ZM13.1392 10.2727C13.1392 8.94886 12.9318 7.83239 12.517 6.92329C12.108 6.00852 11.5398 5.31818 10.8125 4.85227C10.0852 4.38068 9.24716 4.14489 8.2983 4.14489C7.34943 4.14489 6.51136 4.38068 5.78409 4.85227C5.05682 5.31818 4.4858 6.00852 4.07102 6.92329C3.66193 7.83239 3.45739 8.94886 3.45739 10.2727C3.45739 11.5966 3.66193 12.7159 4.07102 13.6307C4.4858 14.5398 5.05682 15.2301 5.78409 15.7017C6.51136 16.1676 7.34943 16.4006 8.2983 16.4006C9.24716 16.4006 10.0852 16.1676 10.8125 15.7017C11.5398 15.2301 12.108 14.5398 12.517 13.6307C12.9318 12.7159 13.1392 11.5966 13.1392 10.2727ZM27.5384 13.4943V5.90909H30.6236V19H27.6321V16.6733H27.4957C27.2003 17.4062 26.7145 18.0057 26.0384 18.4716C25.3679 18.9375 24.5412 19.1705 23.5582 19.1705C22.7003 19.1705 21.9418 18.9801 21.2827 18.5994C20.6293 18.2131 20.1179 17.6534 19.7486 16.9205C19.3793 16.1818 19.1946 15.2898 19.1946 14.2443V5.90909H22.2798V13.767C22.2798 14.5966 22.5071 15.2557 22.9616 15.7443C23.4162 16.233 24.0128 16.4773 24.7514 16.4773C25.206 16.4773 25.6463 16.3665 26.0724 16.1449C26.4986 15.9233 26.848 15.5938 27.1207 15.1562C27.3991 14.7131 27.5384 14.1591 27.5384 13.4943ZM33.7962 19V5.90909H36.8814V19H33.7962ZM35.3473 4.05114C34.8587 4.05114 34.4382 3.8892 34.0859 3.56534C33.7337 3.23579 33.5575 2.84091 33.5575 2.38068C33.5575 1.91477 33.7337 1.51989 34.0859 1.19602C34.4382 0.866477 34.8587 0.701704 35.3473 0.701704C35.8416 0.701704 36.2621 0.866477 36.6087 1.19602C36.9609 1.51989 37.1371 1.91477 37.1371 2.38068C37.1371 2.84091 36.9609 3.23579 36.6087 3.56534C36.2621 3.8892 35.8416 4.05114 35.3473 4.05114ZM45.7642 19.2557C44.4574 19.2557 43.3352 18.9688 42.3977 18.3949C41.4659 17.821 40.7472 17.0284 40.2415 16.017C39.7415 15 39.4915 13.8295 39.4915 12.5057C39.4915 11.1761 39.7472 10.0028 40.2585 8.9858C40.7699 7.96307 41.4915 7.16761 42.4233 6.59943C43.3608 6.02557 44.4688 5.73864 45.7472 5.73864C46.8097 5.73864 47.75 5.93466 48.5682 6.3267C49.392 6.71307 50.0483 7.26136 50.5369 7.97159C51.0256 8.67614 51.304 9.5 51.3722 10.4432H48.4233C48.304 9.8125 48.0199 9.28693 47.571 8.86648C47.1278 8.44034 46.5341 8.22727 45.7898 8.22727C45.1591 8.22727 44.6051 8.39773 44.1278 8.73864C43.6506 9.07386 43.2784 9.55682 43.0114 10.1875C42.75 10.8182 42.6193 11.5739 42.6193 12.4545C42.6193 13.3466 42.75 14.1136 43.0114 14.7557C43.2727 15.392 43.6392 15.8835 44.1108 16.2301C44.5881 16.571 45.1477 16.7415 45.7898 16.7415C46.2443 16.7415 46.6506 16.6562 47.0085 16.4858C47.3722 16.3097 47.6761 16.0568 47.9205 15.7273C48.1648 15.3977 48.3324 14.9972 48.4233 14.5256H51.3722C51.2983 15.4517 51.0256 16.2727 50.554 16.9886C50.0824 17.6989 49.4403 18.2557 48.6278 18.6591C47.8153 19.0568 46.8608 19.2557 45.7642 19.2557ZM56.718 14.892L56.7095 11.1676H57.2038L61.9084 5.90909H65.5135L59.7266 12.3523H59.0874L56.718 14.892ZM53.9055 19V1.54545H56.9908V19H53.9055ZM62.1214 19L57.8601 13.0426L59.9396 10.8693L65.8118 19H62.1214ZM71.3793 19L66.4531 1.54545H69.8537L72.9986 14.3722H73.1605L76.5185 1.54545H79.6122L82.9787 14.3807H83.1321L86.277 1.54545H89.6776L84.7514 19H81.6321L78.1378 6.75284H78.0014L74.4986 19H71.3793ZM94.1648 19.2642C93.3352 19.2642 92.5881 19.1165 91.9233 18.821C91.2642 18.5199 90.7415 18.0767 90.3551 17.4915C89.9744 16.9062 89.7841 16.1847 89.7841 15.3267C89.7841 14.5881 89.9205 13.9773 90.1932 13.4943C90.4659 13.0114 90.8381 12.625 91.3097 12.3352C91.7813 12.0455 92.3125 11.8267 92.9034 11.679C93.5 11.5256 94.1165 11.4148 94.7528 11.3466C95.5199 11.267 96.142 11.196 96.6193 11.1335C97.0966 11.0653 97.4432 10.9631 97.6591 10.8267C97.8807 10.6847 97.9915 10.4659 97.9915 10.1705V10.1193C97.9915 9.47727 97.8011 8.98011 97.4205 8.62784C97.0398 8.27557 96.4915 8.09943 95.7756 8.09943C95.0199 8.09943 94.4205 8.2642 93.9773 8.59375C93.5398 8.9233 93.2443 9.3125 93.0909 9.76136L90.2102 9.35227C90.4375 8.55682 90.8125 7.89205 91.3352 7.35795C91.858 6.81818 92.4972 6.41477 93.2528 6.14773C94.0085 5.875 94.8438 5.73864 95.7585 5.73864C96.3892 5.73864 97.017 5.8125 97.642 5.96023C98.267 6.10795 98.8381 6.35227 99.3551 6.69318C99.8722 7.02841 100.287 7.4858 100.599 8.06534C100.918 8.64489 101.077 9.36932 101.077 10.2386V19H98.1108V17.2017H98.0085C97.821 17.5653 97.5568 17.9062 97.2159 18.2244C96.8807 18.5369 96.4574 18.7898 95.946 18.983C95.4403 19.1705 94.8466 19.2642 94.1648 19.2642ZM94.9659 16.9972C95.5852 16.9972 96.1222 16.875 96.5767 16.6307C97.0313 16.3807 97.3807 16.0511 97.625 15.642C97.875 15.233 98 14.7869 98 14.304V12.7614C97.9034 12.8409 97.7386 12.9148 97.5057 12.983C97.2784 13.0511 97.0227 13.1108 96.7386 13.1619C96.4545 13.2131 96.1733 13.2585 95.8949 13.2983C95.6165 13.3381 95.375 13.3722 95.1705 13.4006C94.7102 13.4631 94.2983 13.5653 93.9347 13.7074C93.571 13.8494 93.2841 14.0483 93.0739 14.304C92.8636 14.554 92.7585 14.8778 92.7585 15.2756C92.7585 15.8438 92.9659 16.2727 93.3807 16.5625C93.7955 16.8523 94.3239 16.9972 94.9659 16.9972ZM110.716 5.90909V8.29545H103.19V5.90909H110.716ZM105.048 2.77273H108.134V15.0625C108.134 15.4773 108.196 15.7955 108.321 16.017C108.452 16.233 108.622 16.3807 108.832 16.4602C109.043 16.5398 109.276 16.5795 109.531 16.5795C109.724 16.5795 109.901 16.5653 110.06 16.5369C110.224 16.5085 110.349 16.483 110.435 16.4602L110.955 18.8722C110.79 18.929 110.554 18.9915 110.247 19.0597C109.946 19.1278 109.577 19.1676 109.139 19.179C108.366 19.2017 107.67 19.0852 107.051 18.8295C106.432 18.5682 105.94 18.1648 105.577 17.6193C105.219 17.0739 105.043 16.392 105.048 15.5739V2.77273ZM118.866 19.2557C117.559 19.2557 116.437 18.9688 115.499 18.3949C114.567 17.821 113.849 17.0284 113.343 16.017C112.843 15 112.593 13.8295 112.593 12.5057C112.593 11.1761 112.849 10.0028 113.36 8.9858C113.871 7.96307 114.593 7.16761 115.525 6.59943C116.462 6.02557 117.57 5.73864 118.849 5.73864C119.911 5.73864 120.852 5.93466 121.67 6.3267C122.494 6.71307 123.15 7.26136 123.638 7.97159C124.127 8.67614 124.406 9.5 124.474 10.4432H121.525C121.406 9.8125 121.121 9.28693 120.673 8.86648C120.229 8.44034 119.636 8.22727 118.891 8.22727C118.261 8.22727 117.707 8.39773 117.229 8.73864C116.752 9.07386 116.38 9.55682 116.113 10.1875C115.852 10.8182 115.721 11.5739 115.721 12.4545C115.721 13.3466 115.852 14.1136 116.113 14.7557C116.374 15.392 116.741 15.8835 117.212 16.2301C117.69 16.571 118.249 16.7415 118.891 16.7415C119.346 16.7415 119.752 16.6562 120.11 16.4858C120.474 16.3097 120.778 16.0568 121.022 15.7273C121.266 15.3977 121.434 14.9972 121.525 14.5256H124.474C124.4 15.4517 124.127 16.2727 123.656 16.9886C123.184 17.6989 122.542 18.2557 121.729 18.6591C120.917 19.0568 119.962 19.2557 118.866 19.2557ZM130.092 11.3295V19H127.007V1.54545H130.024V8.13352H130.178C130.484 7.39489 130.959 6.8125 131.601 6.38636C132.249 5.95455 133.072 5.73864 134.072 5.73864C134.982 5.73864 135.774 5.92898 136.45 6.30966C137.126 6.69034 137.649 7.24716 138.018 7.98011C138.393 8.71307 138.581 9.60795 138.581 10.6648V19H135.496V11.142C135.496 10.2614 135.268 9.5767 134.814 9.08807C134.365 8.59375 133.734 8.34659 132.922 8.34659C132.376 8.34659 131.888 8.46591 131.456 8.70455C131.03 8.9375 130.695 9.27557 130.45 9.71875C130.212 10.1619 130.092 10.6989 130.092 11.3295Z" fill="white"/>
</svg>
